<svg width="33" height="18" viewBox="0 0 33 18" fill="none" xmlns="http://www.w3.org/2000/svg">
<g id="Group 2">
<path id="Ellipse 1" d="M0.708139 9.05365C0.691604 9.03514 0.675685 9.01725 0.660387 9C0.675685 8.98275 0.691604 8.96486 0.708139 8.94635C0.922873 8.70592 1.2412 8.36063 1.65205 7.94544C2.47431 7.11452 3.66431 6.00652 5.13364 4.89932C8.0838 2.67626 12.1022 0.5 16.5 0.5C20.8978 0.5 24.9162 2.67626 27.8664 4.89932C29.3357 6.00652 30.5257 7.11452 31.3479 7.94544C31.7588 8.36063 32.0771 8.70592 32.2919 8.94635C32.3084 8.96486 32.3243 8.98275 32.3396 9C32.3243 9.01725 32.3084 9.03514 32.2919 9.05365C32.0771 9.29408 31.7588 9.63937 31.3479 10.0546C30.5257 10.8855 29.3357 11.9935 27.8664 13.1007C24.9162 15.3237 20.8978 17.5 16.5 17.5C12.1022 17.5 8.0838 15.3237 5.13364 13.1007C3.66431 11.9935 2.47431 10.8855 1.65205 10.0546C1.2412 9.63937 0.922873 9.29408 0.708139 9.05365Z" stroke="#A6A6A6"/>
<path id="Ellipse 2" d="M23.5 8.70078C23.5 12.197 20.4061 15.1008 16.5 15.1008C12.5939 15.1008 9.5 12.197 9.5 8.70078C9.5 5.20459 12.5939 2.30078 16.5 2.30078C20.4061 2.30078 23.5 5.20459 23.5 8.70078Z" stroke="#A6A6A6"/>
<path id="Ellipse 3" d="M19.9031 8.70039C19.9031 10.2067 18.5571 11.5004 16.8031 11.5004C15.0492 11.5004 13.7031 10.2067 13.7031 8.70039C13.7031 7.19406 15.0492 5.90039 16.8031 5.90039C18.5571 5.90039 19.9031 7.19406 19.9031 8.70039Z" fill="#A6A6A6" stroke="#A6A6A6"/>
</g>
</svg>
