<svg width="39" height="39" viewBox="0 0 39 39" fill="none" xmlns="http://www.w3.org/2000/svg">
<g id="Facebook - Original" clip-path="url(#clip0_4576_39979)">
<path id="Vector" d="M39 19.5C39 8.73044 30.2696 0 19.5 0C8.73044 0 0 8.73044 0 19.5C0 29.2329 7.13083 37.3002 16.4531 38.7631V25.1367H11.502V19.5H16.4531V15.2039C16.4531 10.3167 19.3644 7.61719 23.8186 7.61719C25.9514 7.61719 28.1836 7.99805 28.1836 7.99805V12.7969H25.7248C23.3025 12.7969 22.5469 14.3001 22.5469 15.8438V19.5H27.9551L27.0905 25.1367H22.5469V38.7631C31.8692 37.3002 39 29.2329 39 19.5Z" fill="#1877F2"/>
<path id="Vector_2" d="M27.0886 25.1367L27.9531 19.5H22.5449V15.8438C22.5449 14.3017 23.3005 12.7969 25.7228 12.7969H28.1816V7.99805C28.1816 7.99805 25.9502 7.61719 23.8166 7.61719C19.3625 7.61719 16.4512 10.3167 16.4512 15.2039V19.5H11.5V25.1367H16.4512V38.7631C18.4701 39.079 20.526 39.079 22.5449 38.7631V25.1367H27.0886Z" fill="white"/>
</g>
<defs>
<clipPath id="clip0_4576_39979">
<rect width="39" height="39" fill="white"/>
</clipPath>
</defs>
</svg>
