<svg width="39" height="39" viewBox="0 0 39 39" fill="none" xmlns="http://www.w3.org/2000/svg">
<g id="Google - Original" clip-path="url(#clip0_4576_39978)">
<path id="Vector" d="M38.6204 19.9487C38.6204 18.6231 38.5129 17.2904 38.2836 15.9863H19.8906V23.4954H30.4234C29.9864 25.9172 28.582 28.0596 26.5256 29.421V34.2933H32.8094C36.4995 30.897 38.6204 25.8814 38.6204 19.9487Z" fill="#4285F4"/>
<path id="Vector_2" d="M19.8866 39.0016C25.1459 39.0016 29.5811 37.2748 32.8126 34.2941L26.5287 29.4218C24.7804 30.6112 22.5234 31.2848 19.8938 31.2848C14.8065 31.2848 10.4931 27.8526 8.94541 23.2383H2.46094V28.2611C5.77125 34.8458 12.5137 39.0016 19.8866 39.0016Z" fill="#34A853"/>
<path id="Vector_3" d="M8.94225 23.2389C8.12542 20.8171 8.12542 18.1946 8.94225 15.7728V10.75H2.46494C-0.300814 16.26 -0.300814 22.7516 2.46494 28.2617L8.94225 23.2389Z" fill="#FBBC04"/>
<path id="Vector_4" d="M19.8866 7.7182C22.6667 7.67521 25.3536 8.72132 27.3671 10.6416L32.9344 5.07425C29.4091 1.76395 24.7303 -0.0560073 19.8866 0.00131408C12.5137 0.00131408 5.77124 4.15711 2.46094 10.7491L8.93825 15.7718C10.4788 11.1503 14.7994 7.7182 19.8866 7.7182Z" fill="#EA4335"/>
</g>
<defs>
<clipPath id="clip0_4576_39978">
<rect width="39" height="39" fill="white"/>
</clipPath>
</defs>
</svg>
